<?xml version="1.0" encoding="UTF-8"?>
<svg width="671px" height="321px" viewBox="0 0 671 321" version="1.1" xmlns="http://www.w3.org/2000/svg" xmlns:xlink="http://www.w3.org/1999/xlink">
    <title>Group 7</title>
    <g id="Page-1" stroke="none" stroke-width="1" fill="none" fill-rule="evenodd">
        <g id="Group-4">
            <rect id="Rectangle" fill="#F4F4F4" x="0" y="0" width="671" height="321" rx="52"></rect>
            <g id="Group" transform="translate(36.000000, 83.000000)" fill="#E9FFD6" stroke="#979797">
                <rect id="Rectangle-Copy" x="0.5" y="0.5" width="192" height="202" rx="16"></rect>
            </g>
            <g id="Group-2" transform="translate(246.000000, 83.000000)" fill="#FFCFEF" stroke="#979797">
                <rect id="Rectangle-Copy-2" x="0.5" y="0.5" width="192" height="202" rx="16"></rect>
            </g>
            <g id="Group-3" transform="translate(456.000000, 83.000000)" fill="#CCF6FF" stroke="#979797">
                <rect id="Rectangle-Copy-3" x="0.5" y="0.5" width="192" height="202" rx="16"></rect>
            </g>
            <g id="Group-5" transform="translate(36.376427, 27.775321)" fill="#0C0C13">
                <path d="M7.44788271,19.2246792 L11.8843471,2.74254165 L11.9381225,2.74254165 L16.3745869,19.2246792 L19.0633532,19.2246792 L23.8224696,-7.10542736e-15 L21.2681416,-7.10542736e-15 L17.6114194,15.7561706 L17.5576441,15.7561706 L13.255618,-7.10542736e-15 L10.5668516,-7.10542736e-15 L6.26482553,15.7561706 L6.2110502,15.7561706 L2.55432801,-7.10542736e-15 L0,-7.10542736e-15 L4.75911639,19.2246792 L7.44788271,19.2246792 Z M31.5930043,19.6011065 C35.0077375,19.6011065 36.9705369,17.5576441 37.6696162,15.0033161 L35.5186031,15.0033161 C35.2766141,15.9443843 34.2548829,17.7189701 31.5123413,17.7189701 C28.5278107,17.7189701 27.0489892,15.406631 27.0489892,12.932966 L37.8847175,12.932966 C37.8847175,8.06629897 35.7874797,5.13554367 31.4854536,5.13554367 C27.4791918,5.13554367 24.8979761,7.79742233 24.8979761,12.3683251 C24.8979761,16.6703512 27.4254165,19.6011065 31.5930043,19.6011065 Z M35.7337044,11.0508296 L27.0489892,11.0508296 C27.0489892,8.8460412 28.904238,7.0176801 31.4854536,7.0176801 C34.0666693,7.0176801 35.7337044,8.8460412 35.7337044,11.0508296 Z M46.5156574,19.6011065 C49.9572783,19.6011065 52.6998199,16.8854525 52.6998199,12.3683251 C52.6998199,7.85119766 49.9572783,5.13554367 46.5156574,5.13554367 C44.310869,5.13554367 43.0202612,6.10349955 42.2136313,7.28655673 L42.1598559,7.28655673 L42.1598559,-7.10542736e-15 L40.0088429,-7.10542736e-15 L40.0088429,19.2246792 L42.1598559,19.2246792 L42.1598559,17.5307564 L42.2136313,17.5307564 C43.0202612,18.5793753 44.310869,19.6011065 46.5156574,19.6011065 Z M46.3005561,17.7189701 C43.7462281,17.7189701 42.1598559,15.5948447 42.1598559,12.3683251 C42.1598559,9.14180549 43.7462281,7.0176801 46.3005561,7.0176801 C49.1237607,7.0176801 50.5488069,9.67955876 50.5488069,12.3683251 C50.5488069,15.0570914 49.1237607,17.7189701 46.3005561,17.7189701 Z M56.1683285,19.2246792 L57.8622512,14.4117875 L66.3318652,14.4117875 L68.0257879,19.2246792 L70.5263406,19.2246792 L63.4548852,-7.10542736e-15 L60.7661189,-7.10542736e-15 L53.6677758,19.2246792 L56.1683285,19.2246792 Z M65.5521229,12.2607744 L58.6688811,12.2607744 L62.0836144,2.23167605 L62.1373897,2.23167605 L65.5521229,12.2607744 Z M74.4250518,19.2246792 L74.4250518,11.9112348 C74.4250518,8.98047952 76.4954019,6.88324178 79.4799325,7.36721972 L79.5337078,7.36721972 L79.5337078,5.21620666 C79.1572805,5.16243134 78.7808532,5.13554367 78.2699876,5.13554367 C76.3071882,5.13554367 75.204794,6.42615151 74.4788271,8.22762495 L74.4250518,8.22762495 L74.4250518,5.51197096 L72.2740387,5.51197096 L72.2740387,19.2246792 L74.4250518,19.2246792 Z M87.4117931,19.6011065 C90.8265264,19.6011065 92.7893258,17.5576441 93.488405,15.0033161 L91.337392,15.0033161 C91.095403,15.9443843 90.0736718,17.7189701 87.3311301,17.7189701 C84.3465995,17.7189701 82.867778,15.406631 82.867778,12.932966 L93.7035063,12.932966 C93.7035063,8.06629897 91.6062686,5.13554367 87.3042425,5.13554367 C83.2979807,5.13554367 80.716765,7.79742233 80.716765,12.3683251 C80.716765,16.6703512 83.2442053,19.6011065 87.4117931,19.6011065 Z M91.5524933,11.0508296 L82.867778,11.0508296 C82.867778,8.8460412 84.7230268,7.0176801 87.3042425,7.0176801 C89.8854581,7.0176801 91.5524933,8.8460412 91.5524933,11.0508296 Z M97.9786448,19.2246792 L97.9786448,10.6744023 C97.9786448,8.5502769 99.5919046,7.0176801 102.011794,7.0176801 C104.162807,7.0176801 104.996325,8.41583859 104.996325,10.1904244 L104.996325,19.2246792 L107.147338,19.2246792 L107.147338,9.6526711 C107.147338,6.5068145 105.0501,5.13554367 102.549548,5.13554367 C100.210321,5.13554367 98.758387,6.18416254 98.0324201,7.15211842 L97.9786448,7.15211842 L97.9786448,5.51197096 L95.8276317,5.51197096 L95.8276317,19.2246792 L97.9786448,19.2246792 Z M113.707928,19.6011065 C115.966491,19.6011065 117.499088,18.7944766 118.359493,17.5038688 L118.413269,17.5038688 C118.789696,19.0095779 119.569438,19.3591175 120.860046,19.3591175 C121.263361,19.3591175 121.559125,19.3322299 122.123766,19.1440162 L122.123766,17.6383071 C120.752496,17.7996331 120.564282,17.2081045 120.564282,16.1325979 L120.564282,9.46445745 C120.564282,6.15727488 118.225055,5.13554367 115.616952,5.13554367 C111.637578,5.13554367 109.99743,7.12523075 109.862992,9.76022175 L112.014005,9.76022175 C112.148443,7.77053467 113.008849,7.0176801 115.616952,7.0176801 C117.82174,7.0176801 118.413269,7.93186065 118.413269,9.00736718 C118.413269,10.378638 117.36465,10.6744023 115.052311,11.1046049 C111.503139,11.7767965 109.1908,12.5834264 109.1908,15.7023953 C109.1908,18.0147344 110.938498,19.6011065 113.707928,19.6011065 Z M113.923029,17.7189701 C112.148443,17.7189701 111.341813,16.9392278 111.341813,15.5948447 C111.341813,13.9546972 112.578646,13.2825056 115.240525,12.7178647 C116.692458,12.4221004 118.009954,12.0456731 118.413269,11.6423582 L118.413269,13.9278095 C118.413269,16.5628005 116.477357,17.7189701 113.923029,17.7189701 Z M137.718611,19.2246792 C141.697985,19.2246792 144.225426,17.1812168 144.225426,13.6320453 C144.225426,10.7550653 142.504615,9.22246848 140.48804,8.87292886 L140.48804,8.81915354 C142.074412,8.28140027 143.472571,7.20589374 143.472571,4.83977938 C143.472571,1.85524876 141.106457,-7.10542736e-15 137.180858,-7.10542736e-15 L129.437211,-7.10542736e-15 L129.437211,19.2246792 L137.718611,19.2246792 Z M137.557285,8.0394113 L131.8571,8.0394113 L131.8571,2.15101306 L137.826162,2.15101306 C140.03095,2.15101306 141.052681,3.3609579 141.052681,5.10865601 C141.052681,6.85635412 140.299827,8.0394113 137.557285,8.0394113 Z M137.9606,17.0736661 L131.8571,17.0736661 L131.8571,10.1904244 L138.498353,10.1904244 C140.514928,10.1904244 141.805536,11.5616952 141.805536,13.6320453 C141.805536,15.4335187 141.052681,17.0736661 137.9606,17.0736661 Z M152.3455,19.6011065 C155.760233,19.6011065 157.723032,17.5576441 158.422112,15.0033161 L156.271099,15.0033161 C156.02911,15.9443843 155.007378,17.7189701 152.264837,17.7189701 C149.280306,17.7189701 147.801485,15.406631 147.801485,12.932966 L158.637213,12.932966 C158.637213,8.06629897 156.539975,5.13554367 152.237949,5.13554367 C148.231687,5.13554367 145.650472,7.79742233 145.650472,12.3683251 C145.650472,16.6703512 148.177912,19.6011065 152.3455,19.6011065 Z M156.4862,11.0508296 L147.801485,11.0508296 C147.801485,8.8460412 149.656733,7.0176801 152.237949,7.0176801 C154.819165,7.0176801 156.4862,8.8460412 156.4862,11.0508296 Z M162.912351,19.2246792 L162.912351,10.6744023 C162.912351,8.5502769 164.525611,7.0176801 166.945501,7.0176801 C169.096514,7.0176801 169.930032,8.41583859 169.930032,10.1904244 L169.930032,19.2246792 L172.081045,19.2246792 L172.081045,9.6526711 C172.081045,6.5068145 169.983807,5.13554367 167.483254,5.13554367 C165.144027,5.13554367 163.692094,6.18416254 162.966127,7.15211842 L162.912351,7.15211842 L162.912351,5.51197096 L160.761338,5.51197096 L160.761338,19.2246792 L162.912351,19.2246792 Z M180.819535,19.6011065 C184.207381,19.6011065 186.654158,17.2887674 186.842372,14.1697985 L184.691359,14.1697985 C184.583808,15.809946 183.588964,17.7189701 180.819535,17.7189701 C177.566128,17.7189701 176.329295,14.9495407 176.329295,12.3683251 C176.329295,9.78710941 177.566128,7.0176801 180.819535,7.0176801 C183.562077,7.0176801 184.583808,8.95359185 184.691359,10.459301 L186.842372,10.459301 C186.51972,7.39410739 184.207381,5.13554367 180.819535,5.13554367 C176.813273,5.13554367 174.178282,8.06629897 174.178282,12.3683251 C174.178282,16.6703512 176.813273,19.6011065 180.819535,19.6011065 Z M191.063735,19.2246792 L191.063735,10.6744023 C191.063735,8.5502769 192.676995,7.0176801 195.096884,7.0176801 C197.247897,7.0176801 198.081415,8.41583859 198.081415,10.1904244 L198.081415,19.2246792 L200.232428,19.2246792 L200.232428,9.6526711 C200.232428,6.5068145 198.13519,5.13554367 195.634638,5.13554367 C193.295411,5.13554367 191.843477,6.18416254 191.11751,7.15211842 L191.063735,7.15211842 L191.063735,-7.10542736e-15 L188.912722,-7.10542736e-15 L188.912722,19.2246792 L191.063735,19.2246792 Z M205.260421,19.2246792 L205.260421,10.6744023 C205.260421,8.5502769 206.604804,7.0176801 208.755817,7.0176801 C210.90683,7.0176801 211.25637,8.41583859 211.25637,10.1904244 L211.25637,19.2246792 L213.407383,19.2246792 L213.407383,10.6744023 C213.407383,8.5502769 214.751766,7.0176801 216.902779,7.0176801 C219.053792,7.0176801 219.403332,8.41583859 219.403332,10.1904244 L219.403332,19.2246792 L221.554345,19.2246792 L221.554345,9.6526711 C221.554345,6.77569113 220.209962,5.13554367 217.440532,5.13554367 C215.370182,5.13554367 213.945136,6.2110502 213.004068,7.50165804 L212.950293,7.50165804 C212.385652,5.96906123 211.25637,5.13554367 209.29357,5.13554367 C207.22322,5.13554367 206.040163,6.18416254 205.314196,7.15211842 L205.260421,7.15211842 L205.260421,5.51197096 L203.109408,5.51197096 L203.109408,19.2246792 L205.260421,19.2246792 Z M228.114935,19.6011065 C230.373498,19.6011065 231.906095,18.7944766 232.7665,17.5038688 L232.820276,17.5038688 C233.196703,19.0095779 233.976445,19.3591175 235.267053,19.3591175 C235.670368,19.3591175 235.966132,19.3322299 236.530773,19.1440162 L236.530773,17.6383071 C235.159503,17.7996331 234.971289,17.2081045 234.971289,16.1325979 L234.971289,9.46445745 C234.971289,6.15727488 232.632062,5.13554367 230.023959,5.13554367 C226.044585,5.13554367 224.404437,7.12523075 224.269999,9.76022175 L226.421012,9.76022175 C226.55545,7.77053467 227.415856,7.0176801 230.023959,7.0176801 C232.228747,7.0176801 232.820276,7.93186065 232.820276,9.00736718 C232.820276,10.378638 231.771657,10.6744023 229.459318,11.1046049 C225.910146,11.7767965 223.597807,12.5834264 223.597807,15.7023953 C223.597807,18.0147344 225.345505,19.6011065 228.114935,19.6011065 Z M228.330036,17.7189701 C226.55545,17.7189701 225.74882,16.9392278 225.74882,15.5948447 C225.74882,13.9546972 226.985653,13.2825056 229.647532,12.7178647 C231.099465,12.4221004 232.416961,12.0456731 232.820276,11.6423582 L232.820276,13.9278095 C232.820276,16.5628005 230.884364,17.7189701 228.330036,17.7189701 Z M240.295046,19.2246792 L240.295046,11.9112348 C240.295046,8.98047952 242.365396,6.88324178 245.349927,7.36721972 L245.403702,7.36721972 L245.403702,5.21620666 C245.027275,5.16243134 244.650848,5.13554367 244.139982,5.13554367 C242.177183,5.13554367 241.074788,6.42615151 240.348822,8.22762495 L240.295046,8.22762495 L240.295046,5.51197096 L238.144033,5.51197096 L238.144033,19.2246792 L240.295046,19.2246792 Z M249.517515,19.2246792 L249.517515,13.8202589 L251.64164,11.8574595 L256.508307,19.2246792 L259.062635,19.2246792 L253.147349,10.5937393 L258.497994,5.51197096 L255.809228,5.51197096 L249.517515,11.4003692 L249.517515,-7.10542736e-15 L247.366502,-7.10542736e-15 L247.366502,19.2246792 L249.517515,19.2246792 Z" id="WebArenaBenchmark" fill-rule="nonzero"></path>
                <text id="user1/web-agent" font-family="AndaleMono, Andale Mono" font-size="18.0796936" font-weight="normal">
                    <tspan x="14.7517094" y="129.224679">user1/web-agent</tspan>
                </text>
                <path d="M44.4562391,195.482801 C46.0193086,195.482801 47.1916107,195.160149 47.9731454,194.514845 C48.7546802,193.869541 49.1454475,193.052156 49.1454475,192.06269 C49.1454475,191.403046 48.9661965,190.879633 48.6076943,190.49245 C48.2491921,190.105268 47.8046494,189.796956 47.2740662,189.567515 C46.743483,189.338073 46.1662945,189.162407 45.5425007,189.040517 C44.9187069,188.918626 44.3415184,188.789565 43.8109352,188.653334 C43.2803519,188.517103 42.8358092,188.348607 42.4773071,188.147846 C42.1188049,187.947085 41.9395538,187.660283 41.9395538,187.287441 C41.9395538,186.986299 42.0148393,186.731763 42.1654102,186.523831 C42.3159811,186.3159 42.5167423,186.147404 42.7676938,186.018343 C43.0186453,185.889283 43.298277,185.792487 43.6065889,185.727957 C43.9149008,185.663426 44.2267977,185.631161 44.5422796,185.631161 C45.3740046,185.631161 46.0659138,185.749467 46.6180072,185.986078 C47.1701005,186.22269 47.6827587,186.470056 48.1559815,186.728178 L48.1559815,186.728178 L48.8443057,185.373039 C48.4141031,185.100578 47.8369146,184.838871 47.1127402,184.58792 C46.3885658,184.336968 45.5245756,184.211492 44.5207695,184.211492 C43.9615061,184.211492 43.4237528,184.272438 42.9075097,184.394328 C42.3912665,184.516219 41.9395538,184.70264 41.5523714,184.953592 C41.1651891,185.204543 40.8532922,185.52361 40.6166808,185.910793 C40.3800693,186.297975 40.2617636,186.764028 40.2617636,187.308951 C40.2617636,187.968595 40.4410147,188.481253 40.7995169,188.846925 C41.1580191,189.212598 41.6025617,189.502984 42.133145,189.718086 C42.6637282,189.933187 43.2409167,190.105268 43.8647105,190.234329 C44.4885043,190.36339 45.0656928,190.503206 45.596276,190.653776 C46.1268592,190.804347 46.5714019,191.005109 46.9299041,191.25606 C47.2884063,191.507012 47.4676574,191.861929 47.4676574,192.320812 C47.4676574,192.636293 47.3923719,192.90517 47.241801,193.127441 C47.0912301,193.349713 46.8868838,193.528964 46.6287623,193.665195 C46.3706407,193.801426 46.0730839,193.901806 45.7360918,193.966337 C45.3990998,194.030867 45.0370126,194.063132 44.6498302,194.063132 C44.2483078,194.063132 43.8503704,194.020112 43.456018,193.934071 C43.0616656,193.848031 42.6924084,193.73331 42.3482463,193.589909 C42.0040842,193.446508 41.6886023,193.285182 41.4018005,193.105931 C41.1149988,192.92668 40.8855574,192.751014 40.7134764,192.578933 L40.7134764,192.578933 L39.8530711,193.977092 C40.0681724,194.163513 40.3406341,194.346349 40.6704561,194.5256 C41.0002781,194.704851 41.3659503,194.866177 41.7674728,195.009578 C42.1689952,195.152979 42.5991978,195.267699 43.0580806,195.35374 C43.5169634,195.439781 43.9830162,195.482801 44.4562391,195.482801 Z M57.9215808,195.482801 C58.4808442,195.482801 59.0006724,195.43261 59.4810653,195.33223 C59.9614582,195.231849 60.3988309,195.099203 60.7931832,194.934292 C61.1875356,194.769381 61.5352827,194.593715 61.8364246,194.407294 C62.1375664,194.220873 62.3885179,194.041622 62.5892791,193.869541 L62.5892791,193.869541 L61.8364246,192.621953 C61.406222,192.994796 60.8720537,193.295937 60.2339198,193.525379 C59.595786,193.75482 58.939727,193.869541 58.2657429,193.869541 C57.6347791,193.869541 57.0575906,193.77633 56.5341774,193.589909 C56.0107642,193.403488 55.5626365,193.138197 55.1897942,192.794034 C54.816952,192.449872 54.5301502,192.030425 54.329389,191.535692 C54.1286278,191.040959 54.0282472,190.47811 54.0282472,189.847147 C54.0282472,188.413138 54.3724093,187.366311 55.0607334,186.706667 C55.7490576,186.047023 56.795884,185.717201 58.2012125,185.717201 C58.5740548,185.717201 58.9504821,185.756637 59.3304944,185.835507 C59.7105067,185.914378 60.0654238,186.011173 60.3952458,186.125894 L60.3952458,186.125894 L60.3952458,188.169356 L61.9439752,188.169356 L61.9439752,185.179448 L61.9654854,185.114918 C61.5066026,184.885476 60.9437542,184.677545 60.2769401,184.491124 C59.6101261,184.304703 58.7461358,184.211492 57.6849694,184.211492 C56.8532443,184.211492 56.1003898,184.336968 55.4264057,184.58792 C54.7524216,184.838871 54.1788181,185.200958 53.7055952,185.674181 C53.2323723,186.147404 52.8702851,186.735348 52.6193336,187.438012 C52.3683821,188.140676 52.2429063,188.943721 52.2429063,189.847147 C52.2429063,190.693212 52.3647971,191.463991 52.6085786,192.159486 C52.85236,192.85498 53.2108622,193.450093 53.6840851,193.944826 C54.157308,194.439559 54.7488366,194.819572 55.4586709,195.084863 C56.1685052,195.350155 56.9894752,195.482801 57.9215808,195.482801 Z M70.311416,195.482801 C71.1431411,195.482801 71.8852406,195.350155 72.5377145,195.084863 C73.1901885,194.819572 73.7386968,194.443144 74.1832395,193.955581 C74.6277822,193.468019 74.9647743,192.87649 75.1942157,192.180996 C75.4236571,191.485502 75.5383778,190.707552 75.5383778,189.847147 C75.5383778,189.058442 75.4344121,188.319927 75.2264809,187.631603 C75.0185496,186.943279 74.6994827,186.348165 74.2692801,185.846262 C73.8390774,185.344359 73.2977392,184.946422 72.6452652,184.65245 C71.9927912,184.358478 71.2148415,184.211492 70.311416,184.211492 C68.6336258,184.211492 67.343018,184.71698 66.4395925,185.727957 C65.536167,186.738933 65.0844543,188.111996 65.0844543,189.847147 C65.0844543,190.635851 65.1884199,191.374366 65.3963512,192.06269 C65.6042825,192.751014 65.9233494,193.346128 66.353552,193.848031 C66.7837546,194.349934 67.3286779,194.747871 67.9883219,195.041843 C68.6479659,195.335815 69.4223306,195.482801 70.311416,195.482801 Z M70.311416,194.041622 C69.6804522,194.041622 69.146284,193.919731 68.7089113,193.67595 C68.2715386,193.432168 67.9166215,193.109516 67.6441598,192.707994 C67.3716982,192.306471 67.174522,191.854759 67.0526312,191.352856 C66.9307405,190.850953 66.8697951,190.34905 66.8697951,189.847147 C66.8697951,188.456158 67.1565969,187.409332 67.7302004,186.706667 C68.3038038,186.004003 69.1642091,185.652671 70.311416,185.652671 C70.9423799,185.652671 71.4765481,185.774562 71.9139208,186.018343 C72.3512934,186.262125 72.7097956,186.584777 72.9894273,186.986299 C73.269059,187.387822 73.4698202,187.835949 73.5917109,188.330682 C73.7136017,188.825415 73.774547,189.330903 73.774547,189.847147 C73.774547,191.223795 73.4841603,192.267036 72.9033868,192.976871 C72.3226132,193.686705 71.458623,194.041622 70.311416,194.041622 Z M86.8742166,195.224679 L86.8742166,193.7835 L82.7442715,193.7835 L82.7442715,187.438012 C82.830312,187.308951 82.9665428,187.15121 83.152964,186.964789 C83.3393851,186.778368 83.5652415,186.591947 83.8305331,186.405526 C84.0958247,186.219105 84.4077216,186.061364 84.7662238,185.932303 C85.1247259,185.803242 85.5262484,185.738712 85.9707911,185.738712 C86.444014,185.738712 86.7702509,185.953813 86.949502,186.384016 C87.1287531,186.814218 87.2183787,187.488202 87.2183787,188.405968 L87.2183787,188.405968 L88.7240878,188.384458 C88.7240878,187.739154 88.6954076,187.161965 88.6380473,186.652892 C88.5806869,186.143819 88.4695513,185.710031 88.3046403,185.351529 C88.1397292,184.993027 87.9102879,184.720565 87.6163161,184.534144 C87.3223443,184.347723 86.9315769,184.254513 86.444014,184.254513 C85.6122889,184.254513 84.8952846,184.412254 84.2930009,184.727735 C83.6907172,185.043217 83.1457939,185.42323 82.658231,185.867772 L82.658231,185.867772 L82.5506803,185.867772 L82.2065182,184.469614 L78.1841238,184.469614 L78.1841238,185.910793 L81.0879914,185.910793 L81.0879914,193.7835 L78.1841238,193.7835 L78.1841238,195.224679 L86.8742166,195.224679 Z M96.3171639,195.482801 C96.7760467,195.482801 97.2313444,195.443366 97.6830572,195.364495 C98.1347699,195.285625 98.5685576,195.174489 98.9844201,195.031088 C99.4002826,194.887687 99.7838799,194.715606 100.135212,194.514845 C100.486544,194.314084 100.791271,194.098982 101.049393,193.869541 L101.049393,193.869541 L100.382579,192.643464 C100.239178,192.772524 100.034831,192.915925 99.7695398,193.073666 C99.5042482,193.231407 99.1995214,193.374808 98.8553593,193.503869 C98.5111972,193.63293 98.14911,193.744065 97.7690977,193.837276 C97.3890854,193.930486 97.0054881,193.977092 96.6183057,193.977092 C95.4567587,193.977092 94.528238,193.658025 93.8327438,193.019891 C93.1372496,192.381757 92.7895025,191.417386 92.7895025,190.126778 L92.7895025,190.126778 L101.113923,190.126778 C101.185623,188.907871 101.099583,187.91482 100.855801,187.147625 C100.61202,186.380431 100.264273,185.778147 99.8125601,185.340774 C99.3608474,184.903402 98.8410192,184.605845 98.2530756,184.448104 C97.6651321,184.290363 97.0700185,184.211492 96.4677348,184.211492 C95.6360098,184.211492 94.8831552,184.336968 94.2091711,184.58792 C93.535187,184.838871 92.9615835,185.200958 92.4883606,185.674181 C92.0151378,186.147404 91.6530506,186.735348 91.4020991,187.438012 C91.1511475,188.140676 91.0256718,188.943721 91.0256718,189.847147 C91.0256718,190.707552 91.1403925,191.481916 91.3698339,192.170241 C91.5992753,192.858565 91.9362673,193.450093 92.38081,193.944826 C92.8253527,194.439559 93.377446,194.819572 94.03709,195.084863 C94.6967341,195.350155 95.4567587,195.482801 96.3171639,195.482801 Z M99.5436835,188.621069 L92.8540329,188.621069 C92.9113932,188.061806 93.044039,187.592168 93.2519703,187.212156 C93.4599015,186.832143 93.7251932,186.523831 94.0478451,186.28722 C94.3704971,186.050609 94.7433393,185.882112 95.1663719,185.781732 C95.5894045,185.681351 96.0375322,185.631161 96.5107551,185.631161 C97.3855004,185.631161 98.0917497,185.892868 98.6295029,186.416281 C99.1672562,186.939694 99.471983,187.674623 99.5436835,188.621069 L99.5436835,188.621069 Z M121.914219,195.482801 C122.817645,195.482801 123.59918,195.307135 124.258824,194.955803 C124.918468,194.60447 125.463391,194.095397 125.893593,193.428583 C126.323796,192.761769 126.646448,191.944384 126.861549,190.976428 C127.076651,190.008473 127.184201,188.915041 127.184201,187.696134 C127.184201,186.448546 127.090991,185.340774 126.90457,184.372818 C126.718148,183.404862 126.417007,182.591063 126.001144,181.931419 C125.585282,181.271775 125.043943,180.769871 124.377129,180.425709 C123.710315,180.081547 122.896515,179.909466 121.935729,179.909466 C121.032304,179.909466 120.250769,180.085132 119.591125,180.436464 C118.931481,180.787797 118.386558,181.29687 117.956355,181.963684 C117.526153,182.630498 117.203501,183.447883 116.988399,184.415839 C116.773298,185.383794 116.665747,186.477226 116.665747,187.696134 C116.665747,188.84334 116.758958,189.893752 116.945379,190.847368 C117.1318,191.800983 117.436527,192.621953 117.85956,193.310278 C118.282592,193.998602 118.827516,194.53277 119.49433,194.912782 C120.161144,195.292795 120.967774,195.482801 121.914219,195.482801 Z M118.558639,189.696576 C118.529959,189.381094 118.504864,189.058442 118.483353,188.72862 C118.461843,188.398798 118.451088,188.054636 118.451088,187.696134 C118.451088,185.573801 118.712795,183.985636 119.236208,182.93164 C119.759621,181.877643 120.659462,181.350645 121.935729,181.350645 C122.753114,181.350645 123.402003,181.580086 123.882396,182.038969 C124.362789,182.497852 124.724876,183.114476 124.968658,183.88884 L124.968658,183.88884 L118.558639,189.696576 Z M121.914219,194.041622 C121.125514,194.041622 120.487381,193.797841 119.999818,193.310278 C119.512255,192.822715 119.146582,192.170241 118.902801,191.352856 L118.902801,191.352856 L125.29131,185.52361 C125.37735,186.211934 125.420371,186.936109 125.420371,187.696134 C125.420371,189.832806 125.151494,191.424556 124.613741,192.471382 C124.075987,193.518209 123.176147,194.041622 121.914219,194.041622 Z M134.820298,195.482801 C135.27918,195.482801 135.637683,195.34657 135.895804,195.074108 C136.153926,194.801647 136.282986,194.457485 136.282986,194.041622 C136.282986,193.582739 136.153926,193.227822 135.895804,192.976871 C135.637683,192.725919 135.27918,192.600443 134.820298,192.600443 C134.390095,192.600443 134.045933,192.725919 133.787811,192.976871 C133.52969,193.227822 133.400629,193.582739 133.400629,194.041622 C133.400629,194.457485 133.52969,194.801647 133.787811,195.074108 C134.045933,195.34657 134.390095,195.482801 134.820298,195.482801 Z M146.564829,195.482801 C147.353534,195.482801 148.095633,195.378835 148.791127,195.170904 C149.486622,194.962973 150.09249,194.654661 150.608733,194.245968 C151.124977,193.837276 151.533669,193.331788 151.834811,192.729504 C152.135953,192.12722 152.286524,191.438896 152.286524,190.664532 C152.286524,190.047908 152.175388,189.495814 151.953117,189.008251 C151.730845,188.520689 151.418948,188.104826 151.017426,187.760664 C150.615904,187.416502 150.142681,187.15121 149.597757,186.964789 C149.052834,186.778368 148.45055,186.685157 147.790906,186.685157 L147.790906,186.685157 L147.446744,186.685157 L151.68424,181.716317 L151.68424,180.167588 L143.187738,180.167588 L143.187738,181.716317 L149.619267,181.716317 L145.381772,187.07234 L145.381772,188.104826 L146.75842,188.104826 C147.934307,188.104826 148.869998,188.316342 149.565492,188.739375 C150.260986,189.162407 150.608733,189.868657 150.608733,190.858123 C150.608733,191.331346 150.508353,191.761548 150.307592,192.148731 C150.10683,192.535913 149.827199,192.865735 149.468697,193.138197 C149.110194,193.410658 148.690747,193.622174 148.210354,193.772745 C147.729961,193.923316 147.202963,193.998602 146.629359,193.998602 C145.998395,193.998602 145.431962,193.944826 144.930059,193.837276 C144.428156,193.729725 143.990783,193.589909 143.617941,193.417828 L143.617941,193.417828 L143.187738,194.923537 C143.632281,195.081278 144.123429,195.213924 144.661182,195.321475 C145.198936,195.429025 145.833484,195.482801 146.564829,195.482801 Z" id="score0.3" fill-rule="nonzero"></path>
                <path d="M240.068247,129.445379 C241.162916,129.445379 242.204617,128.918643 243.19335,127.865171 L243.19335,127.865171 L243.19335,129.224679 L244.570514,129.224679 L244.570514,120.025929 L243.19335,120.025929 L243.19335,126.673394 C242.228158,127.720981 241.324762,128.244774 240.483162,128.244774 C239.89463,128.244774 239.476772,128.05203 239.229589,127.666542 C238.982406,127.281053 238.858814,126.696936 238.858814,125.914188 L238.858814,125.914188 L238.858814,120.025929 L237.48165,120.025929 L237.48165,126.311447 C237.48165,128.400735 238.343849,129.445379 240.068247,129.445379 Z M251.403367,129.463035 C252.539233,129.463035 253.474999,129.208495 254.210663,128.699415 C254.946328,128.190335 255.31416,127.497339 255.31416,126.620426 C255.31416,126.173142 255.218524,125.780297 255.027251,125.441892 C254.835978,125.103486 254.549069,124.815105 254.166523,124.57675 C253.783978,124.338395 253.289611,124.13388 252.683424,123.963206 L252.683424,123.963206 L251.368055,123.583603 C250.767753,123.412929 250.367551,123.229013 250.167451,123.031854 C249.96735,122.834696 249.867299,122.603698 249.867299,122.338858 C249.867299,121.921001 250.085056,121.587009 250.52057,121.336883 C250.956083,121.086757 251.547557,120.961694 252.294993,120.961694 C252.977689,120.961694 253.704526,121.088229 254.475503,121.341297 L254.475503,121.341297 L254.784482,120.184832 C253.878143,119.931764 253.054199,119.805229 252.312649,119.805229 C251.165012,119.805229 250.24396,120.037699 249.549492,120.502639 C248.855025,120.96758 248.507791,121.597308 248.507791,122.391826 C248.507791,122.756716 248.582829,123.086294 248.732905,123.380559 C248.88298,123.674825 249.102208,123.927894 249.390589,124.139765 C249.678969,124.351637 249.990891,124.512012 250.326354,124.62089 C250.661817,124.729768 251.18561,124.893086 251.897734,125.110843 C252.780531,125.381567 253.341108,125.641993 253.579463,125.892118 C253.817818,126.142244 253.936996,126.426211 253.936996,126.744018 C253.936996,127.214843 253.697169,127.592975 253.217516,127.878413 C252.737863,128.163851 252.11549,128.30657 251.350399,128.30657 C250.467602,128.30657 249.640715,128.124125 248.869738,127.759235 L248.869738,127.759235 L248.604899,128.951012 C249.340564,129.29236 250.273386,129.463035 251.403367,129.463035 Z M263.356446,129.463035 C264.439344,129.463035 265.38688,129.28059 266.199054,128.9157 L266.199054,128.9157 L265.960699,127.812203 C265.072016,128.112354 264.209817,128.26243 263.374102,128.26243 C262.49719,128.26243 261.757111,127.924024 261.153866,127.247213 C260.550621,126.570401 260.248999,125.711145 260.248999,124.669444 L260.248999,124.669444 L266.561001,124.669444 L266.561001,124.236873 C266.561001,122.895021 266.204939,121.82095 265.492816,121.014662 C264.780693,120.208374 263.894952,119.805229 262.835595,119.805229 C261.646761,119.805229 260.677155,120.239272 259.926777,121.107356 C259.176399,121.97544 258.801211,123.139261 258.801211,124.59882 C258.801211,126.087805 259.219068,127.270754 260.054783,128.147666 C260.890498,129.024578 261.991052,129.463035 263.356446,129.463035 Z M265.060245,123.548291 L260.337278,123.548291 C260.390246,122.789085 260.650671,122.17407 261.118554,121.703244 C261.586437,121.232419 262.17644,120.997006 262.888563,120.997006 C263.441783,120.997006 263.942035,121.242718 264.389319,121.734142 C264.836603,122.225566 265.060245,122.830282 265.060245,123.548291 L265.060245,123.548291 Z M272.396293,129.224679 L272.396293,123.274624 C272.396293,123.221656 272.55961,122.978887 272.886245,122.546316 C273.21288,122.113745 273.570413,121.781225 273.958844,121.548755 C274.347275,121.316285 274.744534,121.20005 275.150621,121.20005 C275.59202,121.20005 276.115813,121.332469 276.722001,121.597308 L276.722001,121.597308 L277.278163,120.273112 C276.624893,119.96119 275.951024,119.805229 275.256557,119.805229 C274.085379,119.805229 273.131957,120.499697 272.396293,121.888632 L272.396293,121.888632 L272.396293,120.025929 L271.027956,120.025929 L271.027956,129.224679 L272.396293,129.224679 Z M287.659862,129.224679 L287.659862,127.962279 L282.416045,127.962279 C283.999195,126.21434 285.064437,125.001964 285.611772,124.325153 C286.159106,123.648341 286.607862,122.942103 286.958038,122.206439 C287.308214,121.470774 287.483303,120.729224 287.483303,119.981789 C287.483303,118.934203 287.143426,118.097016 286.463671,117.47023 C285.783917,116.843444 284.887878,116.530051 283.775553,116.530051 C282.804476,116.530051 281.874596,116.718381 280.985913,117.095041 L280.985913,117.095041 L281.188956,118.339786 C282.171804,117.980781 282.954551,117.801279 283.537198,117.801279 C284.296404,117.801279 284.886407,118.00138 285.307207,118.401581 C285.728007,118.801783 285.938407,119.349117 285.938407,120.043585 C285.938407,120.761593 285.776561,121.482545 285.452868,122.206439 C285.129176,122.930333 284.708376,123.621857 284.190468,124.281013 C283.67256,124.940168 282.545522,126.237881 280.809353,128.17415 L280.809353,128.17415 L280.809353,129.224679 L287.659862,129.224679 Z M293.044927,129.463035 L298.456476,116.530051 L297.13228,116.530051 L291.747215,129.463035 L293.044927,129.463035 Z M304.06224,129.224679 L306.233922,124.016174 L308.396776,129.224679 L309.447305,129.224679 L310.771502,120.025929 L309.359026,120.025929 L308.617476,126.761674 L306.94016,122.789085 L305.527684,122.789085 L303.841541,126.788158 C303.823885,126.576287 303.570816,124.32221 303.082335,120.025929 L303.082335,120.025929 L301.713999,120.025929 L303.011711,129.224679 L304.06224,129.224679 Z M317.604355,129.463035 C318.687253,129.463035 319.634789,129.28059 320.446963,128.9157 L320.446963,128.9157 L320.208607,127.812203 C319.319925,128.112354 318.457726,128.26243 317.622011,128.26243 C316.745098,128.26243 316.00502,127.924024 315.401775,127.247213 C314.79853,126.570401 314.496907,125.711145 314.496907,124.669444 L314.496907,124.669444 L320.80891,124.669444 L320.80891,124.236873 C320.80891,122.895021 320.452848,121.82095 319.740725,121.014662 C319.028601,120.208374 318.142861,119.805229 317.083504,119.805229 C315.89467,119.805229 314.925064,120.239272 314.174686,121.107356 C313.424308,121.97544 313.049119,123.139261 313.049119,124.59882 C313.049119,126.087805 313.466977,127.270754 314.302692,128.147666 C315.138407,129.024578 316.238961,129.463035 317.604355,129.463035 Z M319.308154,123.548291 L314.585187,123.548291 C314.638155,122.789085 314.89858,122.17407 315.366463,121.703244 C315.834346,121.232419 316.424349,120.997006 317.136472,120.997006 C317.689692,120.997006 318.189944,121.242718 318.637228,121.734142 C319.084512,122.225566 319.308154,122.830282 319.308154,123.548291 L319.308154,123.548291 Z M328.453937,129.463035 C329.519179,129.463035 330.369607,128.987795 331.005221,128.037317 C331.640836,127.086838 331.958643,125.902418 331.958643,124.484056 C331.958643,123.083351 331.659963,121.95337 331.062603,121.094114 C330.465244,120.234858 329.631,119.805229 328.559872,119.805229 C327.983111,119.805229 327.434305,119.934706 326.913455,120.19366 C326.392604,120.452614 325.979161,120.793963 325.673124,121.217706 L325.673124,121.217706 L325.673124,116.768406 L324.29596,116.768406 L324.29596,129.224679 L325.673124,129.224679 L325.673124,127.900483 C325.961505,128.371308 326.35435,128.74944 326.851659,129.034878 C327.348968,129.320316 327.883061,129.463035 328.453937,129.463035 Z M328.09199,128.227118 C327.621164,128.227118 327.165052,128.053501 326.723653,127.706267 C326.282255,127.359034 325.932078,126.926463 325.673124,126.408555 L325.673124,126.408555 L325.673124,122.586042 C326.349936,121.526685 327.17388,120.997006 328.144957,120.997006 C328.892393,120.997006 329.475039,121.326584 329.892897,121.985739 C330.310754,122.644895 330.519683,123.504151 330.519683,124.563508 C330.519683,125.593439 330.300455,126.461523 329.861999,127.167761 C329.423542,127.873999 328.833539,128.227118 328.09199,128.227118 Z M341.201533,124.925455 L341.201533,123.583603 L335.957716,123.583603 L335.957716,124.925455 L341.201533,124.925455 Z M350.1531,129.463035 C351.218342,129.463035 352.068771,128.987795 352.704385,128.037317 C353.339999,127.086838 353.657806,125.902418 353.657806,124.484056 C353.657806,123.083351 353.359126,121.95337 352.761767,121.094114 C352.164407,120.234858 351.330163,119.805229 350.259036,119.805229 C349.682275,119.805229 349.133469,119.934706 348.612618,120.19366 C348.091768,120.452614 347.678324,120.793963 347.372288,121.217706 L347.372288,121.217706 L347.372288,116.768406 L345.995124,116.768406 L345.995124,129.224679 L347.372288,129.224679 L347.372288,127.900483 C347.660668,128.371308 348.053513,128.74944 348.550823,129.034878 C349.048132,129.320316 349.582224,129.463035 350.1531,129.463035 Z M349.791153,128.227118 C349.320328,128.227118 348.864216,128.053501 348.422817,127.706267 C347.981418,127.359034 347.631242,126.926463 347.372288,126.408555 L347.372288,126.408555 L347.372288,122.586042 C348.049099,121.526685 348.873044,120.997006 349.844121,120.997006 C350.591556,120.997006 351.174203,121.326584 351.59206,121.985739 C352.009918,122.644895 352.218846,123.504151 352.218846,124.563508 C352.218846,125.593439 351.999618,126.461523 351.561162,127.167761 C351.122706,127.873999 350.532703,128.227118 349.791153,128.227118 Z M360.367068,129.463035 C361.632411,129.463035 362.6388,129.018693 363.386235,128.13001 C364.13367,127.241327 364.507388,126.070149 364.507388,124.616476 C364.507388,123.174573 364.13367,122.012223 363.386235,121.129426 C362.6388,120.246628 361.632411,119.805229 360.367068,119.805229 C359.101724,119.805229 358.095335,120.245157 357.3479,121.125012 C356.600465,122.004867 356.226747,123.168688 356.226747,124.616476 C356.226747,126.076035 356.598993,127.248684 357.343486,128.134424 C358.087979,129.020164 359.095839,129.463035 360.367068,129.463035 Z M360.367068,128.26243 C359.525467,128.26243 358.866312,127.913725 358.389601,127.216315 C357.91289,126.518905 357.674535,125.658177 357.674535,124.634132 C357.674535,123.557119 357.909948,122.681678 358.380773,122.007809 C358.851598,121.333941 359.513697,120.997006 360.367068,120.997006 C361.214553,120.997006 361.876651,121.338355 362.353362,122.021051 C362.830073,122.703748 363.068428,123.574775 363.068428,124.634132 C363.068428,125.640521 362.82713,126.496835 362.344534,127.203073 C361.861938,127.909311 361.202783,128.26243 360.367068,128.26243 Z M372.143587,129.445379 C373.038155,129.445379 373.947436,129.233507 374.871431,128.809764 L374.871431,128.809764 L374.633076,127.741579 C373.897411,128.077042 373.152919,128.244774 372.399598,128.244774 C371.975855,128.244774 371.640392,128.090284 371.393209,127.781305 C371.146026,127.472326 371.022434,127.038284 371.022434,126.479179 L371.022434,126.479179 L371.022434,121.217706 L374.147537,121.217706 L374.147537,120.025929 L371.022434,120.025929 L371.022434,117.509956 L369.680582,117.509956 L369.680582,120.025929 L367.914987,120.025929 L367.914987,121.217706 L369.680582,121.217706 L369.680582,126.841126 C369.680582,128.577294 370.501583,129.445379 372.143587,129.445379 Z" id="user2/web-bot" fill-rule="nonzero"></path>
                <path d="M248.0032,195.482801 C249.566269,195.482801 250.738572,195.160149 251.520106,194.514845 C252.301641,193.869541 252.692408,193.052156 252.692408,192.06269 C252.692408,191.403046 252.513157,190.879633 252.154655,190.49245 C251.796153,190.105268 251.35161,189.796956 250.821027,189.567515 C250.290444,189.338073 249.713255,189.162407 249.089461,189.040517 C248.465668,188.918626 247.888479,188.789565 247.357896,188.653334 C246.827313,188.517103 246.38277,188.348607 246.024268,188.147846 C245.665766,187.947085 245.486515,187.660283 245.486515,187.287441 C245.486515,186.986299 245.5618,186.731763 245.712371,186.523831 C245.862942,186.3159 246.063703,186.147404 246.314655,186.018343 C246.565606,185.889283 246.845238,185.792487 247.15355,185.727957 C247.461862,185.663426 247.773759,185.631161 248.08924,185.631161 C248.920965,185.631161 249.612875,185.749467 250.164968,185.986078 C250.717061,186.22269 251.229719,186.470056 251.702942,186.728178 L251.702942,186.728178 L252.391267,185.373039 C251.961064,185.100578 251.383875,184.838871 250.659701,184.58792 C249.935527,184.336968 249.071536,184.211492 248.06773,184.211492 C247.508467,184.211492 246.970714,184.272438 246.45447,184.394328 C245.938227,184.516219 245.486515,184.70264 245.099332,184.953592 C244.71215,185.204543 244.400253,185.52361 244.163642,185.910793 C243.92703,186.297975 243.808724,186.764028 243.808724,187.308951 C243.808724,187.968595 243.987976,188.481253 244.346478,188.846925 C244.70498,189.212598 245.149523,189.502984 245.680106,189.718086 C246.210689,189.933187 246.787878,190.105268 247.411671,190.234329 C248.035465,190.36339 248.612654,190.503206 249.143237,190.653776 C249.67382,190.804347 250.118363,191.005109 250.476865,191.25606 C250.835367,191.507012 251.014618,191.861929 251.014618,192.320812 C251.014618,192.636293 250.939333,192.90517 250.788762,193.127441 C250.638191,193.349713 250.433845,193.528964 250.175723,193.665195 C249.917602,193.801426 249.620045,193.901806 249.283053,193.966337 C248.946061,194.030867 248.583973,194.063132 248.196791,194.063132 C247.795269,194.063132 247.397331,194.020112 247.002979,193.934071 C246.608626,193.848031 246.239369,193.73331 245.895207,193.589909 C245.551045,193.446508 245.235563,193.285182 244.948761,193.105931 C244.66196,192.92668 244.432518,192.751014 244.260437,192.578933 L244.260437,192.578933 L243.400032,193.977092 C243.615133,194.163513 243.887595,194.346349 244.217417,194.5256 C244.547239,194.704851 244.912911,194.866177 245.314434,195.009578 C245.715956,195.152979 246.146159,195.267699 246.605041,195.35374 C247.063924,195.439781 247.529977,195.482801 248.0032,195.482801 Z M261.468542,195.482801 C262.027805,195.482801 262.547633,195.43261 263.028026,195.33223 C263.508419,195.231849 263.945792,195.099203 264.340144,194.934292 C264.734496,194.769381 265.082244,194.593715 265.383385,194.407294 C265.684527,194.220873 265.935479,194.041622 266.13624,193.869541 L266.13624,193.869541 L265.383385,192.621953 C264.953183,192.994796 264.419015,193.295937 263.780881,193.525379 C263.142747,193.75482 262.486688,193.869541 261.812704,193.869541 C261.18174,193.869541 260.604551,193.77633 260.081138,193.589909 C259.557725,193.403488 259.109597,193.138197 258.736755,192.794034 C258.363913,192.449872 258.077111,192.030425 257.87635,191.535692 C257.675589,191.040959 257.575208,190.47811 257.575208,189.847147 C257.575208,188.413138 257.91937,187.366311 258.607694,186.706667 C259.296018,186.047023 260.342845,185.717201 261.748173,185.717201 C262.121016,185.717201 262.497443,185.756637 262.877455,185.835507 C263.257468,185.914378 263.612385,186.011173 263.942207,186.125894 L263.942207,186.125894 L263.942207,188.169356 L265.490936,188.169356 L265.490936,185.179448 L265.512446,185.114918 C265.053563,184.885476 264.490715,184.677545 263.823901,184.491124 C263.157087,184.304703 262.293097,184.211492 261.23193,184.211492 C260.400205,184.211492 259.647351,184.336968 258.973366,184.58792 C258.299382,184.838871 257.725779,185.200958 257.252556,185.674181 C256.779333,186.147404 256.417246,186.735348 256.166294,187.438012 C255.915343,188.140676 255.789867,188.943721 255.789867,189.847147 C255.789867,190.693212 255.911758,191.463991 256.155539,192.159486 C256.399321,192.85498 256.757823,193.450093 257.231046,193.944826 C257.704269,194.439559 258.295797,194.819572 259.005632,195.084863 C259.715466,195.350155 260.536436,195.482801 261.468542,195.482801 Z M273.858377,195.482801 C274.690102,195.482801 275.432201,195.350155 276.084675,195.084863 C276.737149,194.819572 277.285658,194.443144 277.7302,193.955581 C278.174743,193.468019 278.511735,192.87649 278.741176,192.180996 C278.970618,191.485502 279.085339,190.707552 279.085339,189.847147 C279.085339,189.058442 278.981373,188.319927 278.773442,187.631603 C278.56551,186.943279 278.246443,186.348165 277.816241,185.846262 C277.386038,185.344359 276.8447,184.946422 276.192226,184.65245 C275.539752,184.358478 274.761802,184.211492 273.858377,184.211492 C272.180587,184.211492 270.889979,184.71698 269.986553,185.727957 C269.083128,186.738933 268.631415,188.111996 268.631415,189.847147 C268.631415,190.635851 268.735381,191.374366 268.943312,192.06269 C269.151243,192.751014 269.47031,193.346128 269.900513,193.848031 C270.330715,194.349934 270.875639,194.747871 271.535283,195.041843 C272.194927,195.335815 272.969291,195.482801 273.858377,195.482801 Z M273.858377,194.041622 C273.227413,194.041622 272.693245,193.919731 272.255872,193.67595 C271.818499,193.432168 271.463582,193.109516 271.191121,192.707994 C270.918659,192.306471 270.721483,191.854759 270.599592,191.352856 C270.477701,190.850953 270.416756,190.34905 270.416756,189.847147 C270.416756,188.456158 270.703558,187.409332 271.277161,186.706667 C271.850765,186.004003 272.71117,185.652671 273.858377,185.652671 C274.489341,185.652671 275.023509,185.774562 275.460882,186.018343 C275.898254,186.262125 276.256756,186.584777 276.536388,186.986299 C276.81602,187.387822 277.016781,187.835949 277.138672,188.330682 C277.260563,188.825415 277.321508,189.330903 277.321508,189.847147 C277.321508,191.223795 277.031121,192.267036 276.450348,192.976871 C275.869574,193.686705 275.005584,194.041622 273.858377,194.041622 Z M290.421177,195.224679 L290.421177,193.7835 L286.291232,193.7835 L286.291232,187.438012 C286.377273,187.308951 286.513504,187.15121 286.699925,186.964789 C286.886346,186.778368 287.112202,186.591947 287.377494,186.405526 C287.642786,186.219105 287.954682,186.061364 288.313185,185.932303 C288.671687,185.803242 289.073209,185.738712 289.517752,185.738712 C289.990975,185.738712 290.317212,185.953813 290.496463,186.384016 C290.675714,186.814218 290.765339,187.488202 290.765339,188.405968 L290.765339,188.405968 L292.271049,188.384458 C292.271049,187.739154 292.242368,187.161965 292.185008,186.652892 C292.127648,186.143819 292.016512,185.710031 291.851601,185.351529 C291.68669,184.993027 291.457249,184.720565 291.163277,184.534144 C290.869305,184.347723 290.478538,184.254513 289.990975,184.254513 C289.15925,184.254513 288.442245,184.412254 287.839962,184.727735 C287.237678,185.043217 286.692755,185.42323 286.205192,185.867772 L286.205192,185.867772 L286.097641,185.867772 L285.753479,184.469614 L281.731085,184.469614 L281.731085,185.910793 L284.634952,185.910793 L284.634952,193.7835 L281.731085,193.7835 L281.731085,195.224679 L290.421177,195.224679 Z M299.864125,195.482801 C300.323008,195.482801 300.778305,195.443366 301.230018,195.364495 C301.681731,195.285625 302.115518,195.174489 302.531381,195.031088 C302.947243,194.887687 303.330841,194.715606 303.682173,194.514845 C304.033505,194.314084 304.338232,194.098982 304.596353,193.869541 L304.596353,193.869541 L303.929539,192.643464 C303.786139,192.772524 303.581792,192.915925 303.316501,193.073666 C303.051209,193.231407 302.746482,193.374808 302.40232,193.503869 C302.058158,193.63293 301.696071,193.744065 301.316059,193.837276 C300.936046,193.930486 300.552449,193.977092 300.165267,193.977092 C299.003719,193.977092 298.075199,193.658025 297.379705,193.019891 C296.68421,192.381757 296.336463,191.417386 296.336463,190.126778 L296.336463,190.126778 L304.660884,190.126778 C304.732584,188.907871 304.646544,187.91482 304.402762,187.147625 C304.158981,186.380431 303.811234,185.778147 303.359521,185.340774 C302.907808,184.903402 302.38798,184.605845 301.800036,184.448104 C301.212093,184.290363 300.616979,184.211492 300.014696,184.211492 C299.182971,184.211492 298.430116,184.336968 297.756132,184.58792 C297.082148,184.838871 296.508544,185.200958 296.035321,185.674181 C295.562099,186.147404 295.200011,186.735348 294.94906,187.438012 C294.698108,188.140676 294.572633,188.943721 294.572633,189.847147 C294.572633,190.707552 294.687353,191.481916 294.916795,192.170241 C295.146236,192.858565 295.483228,193.450093 295.927771,193.944826 C296.372314,194.439559 296.924407,194.819572 297.584051,195.084863 C298.243695,195.350155 299.003719,195.482801 299.864125,195.482801 Z M303.090644,188.621069 L296.400994,188.621069 C296.458354,188.061806 296.591,187.592168 296.798931,187.212156 C297.006862,186.832143 297.272154,186.523831 297.594806,186.28722 C297.917458,186.050609 298.2903,185.882112 298.713333,185.781732 C299.136365,185.681351 299.584493,185.631161 300.057716,185.631161 C300.932461,185.631161 301.63871,185.892868 302.176464,186.416281 C302.714217,186.939694 303.018944,187.674623 303.090644,188.621069 L303.090644,188.621069 Z M325.46118,195.482801 C326.364606,195.482801 327.14614,195.307135 327.805784,194.955803 C328.465428,194.60447 329.010352,194.095397 329.440554,193.428583 C329.870757,192.761769 330.193409,191.944384 330.40851,190.976428 C330.623611,190.008473 330.731162,188.915041 330.731162,187.696134 C330.731162,186.448546 330.637952,185.340774 330.45153,184.372818 C330.265109,183.404862 329.963967,182.591063 329.548105,181.931419 C329.132242,181.271775 328.590904,180.769871 327.92409,180.425709 C327.257276,180.081547 326.443476,179.909466 325.48269,179.909466 C324.579265,179.909466 323.79773,180.085132 323.138086,180.436464 C322.478442,180.787797 321.933519,181.29687 321.503316,181.963684 C321.073113,182.630498 320.750462,183.447883 320.53536,184.415839 C320.320259,185.383794 320.212708,186.477226 320.212708,187.696134 C320.212708,188.84334 320.305919,189.893752 320.49234,190.847368 C320.678761,191.800983 320.983488,192.621953 321.40652,193.310278 C321.829553,193.998602 322.374476,194.53277 323.04129,194.912782 C323.708104,195.292795 324.514734,195.482801 325.46118,195.482801 Z M322.1056,189.696576 C322.07692,189.381094 322.051824,189.058442 322.030314,188.72862 C322.008804,188.398798 321.998049,188.054636 321.998049,187.696134 C321.998049,185.573801 322.259756,183.985636 322.783169,182.93164 C323.306582,181.877643 324.206422,181.350645 325.48269,181.350645 C326.300075,181.350645 326.948964,181.580086 327.429357,182.038969 C327.90975,182.497852 328.271837,183.114476 328.515619,183.88884 L328.515619,183.88884 L322.1056,189.696576 Z M325.46118,194.041622 C324.672475,194.041622 324.034341,193.797841 323.546778,193.310278 C323.059216,192.822715 322.693543,192.170241 322.449762,191.352856 L322.449762,191.352856 L328.838271,185.52361 C328.924311,186.211934 328.967331,186.936109 328.967331,187.696134 C328.967331,189.832806 328.698455,191.424556 328.160701,192.471382 C327.622948,193.518209 326.723108,194.041622 325.46118,194.041622 Z M338.367258,195.482801 C338.826141,195.482801 339.184643,195.34657 339.442765,195.074108 C339.700887,194.801647 339.829947,194.457485 339.829947,194.041622 C339.829947,193.582739 339.700887,193.227822 339.442765,192.976871 C339.184643,192.725919 338.826141,192.600443 338.367258,192.600443 C337.937056,192.600443 337.592894,192.725919 337.334772,192.976871 C337.076651,193.227822 336.94759,193.582739 336.94759,194.041622 C336.94759,194.457485 337.076651,194.801647 337.334772,195.074108 C337.592894,195.34657 337.937056,195.482801 338.367258,195.482801 Z M350.11179,195.482801 C350.900495,195.482801 351.642594,195.378835 352.338088,195.170904 C353.033582,194.962973 353.639451,194.654661 354.155694,194.245968 C354.671937,193.837276 355.08063,193.331788 355.381772,192.729504 C355.682914,192.12722 355.833484,191.438896 355.833484,190.664532 C355.833484,190.047908 355.722349,189.495814 355.500077,189.008251 C355.277806,188.520689 354.965909,188.104826 354.564387,187.760664 C354.162864,187.416502 353.689641,187.15121 353.144718,186.964789 C352.599795,186.778368 351.997511,186.685157 351.337867,186.685157 L351.337867,186.685157 L350.993705,186.685157 L355.231201,181.716317 L355.231201,180.167588 L346.734699,180.167588 L346.734699,181.716317 L353.166228,181.716317 L348.928733,187.07234 L348.928733,188.104826 L350.305381,188.104826 C351.481268,188.104826 352.416959,188.316342 353.112453,188.739375 C353.807947,189.162407 354.155694,189.868657 354.155694,190.858123 C354.155694,191.331346 354.055314,191.761548 353.854552,192.148731 C353.653791,192.535913 353.37416,192.865735 353.015657,193.138197 C352.657155,193.410658 352.237708,193.622174 351.757315,193.772745 C351.276922,193.923316 350.749924,193.998602 350.17632,193.998602 C349.545356,193.998602 348.978923,193.944826 348.47702,193.837276 C347.975117,193.729725 347.537744,193.589909 347.164902,193.417828 L347.164902,193.417828 L346.734699,194.923537 C347.179242,195.081278 347.67039,195.213924 348.208143,195.321475 C348.745896,195.429025 349.380445,195.482801 350.11179,195.482801 Z M368.976174,195.224679 L368.976174,193.67595 L361.404608,193.67595 C363.641662,191.768718 365.383982,190.004888 366.63157,188.384458 C367.879158,186.764028 368.502951,185.294169 368.502951,183.974881 C368.502951,182.727293 368.158789,181.737827 367.470465,181.006483 C366.782141,180.275138 365.763995,179.909466 364.416027,179.909466 C363.555621,179.909466 362.763332,180.017017 362.039157,180.232118 C361.314983,180.447219 360.630244,180.784212 359.98494,181.243094 L359.98494,181.243094 L360.716284,182.426152 C361.146487,182.09633 361.62688,181.845378 362.157463,181.673297 C362.688046,181.501216 363.34052,181.415175 364.114885,181.415175 C365.01831,181.415175 365.695879,181.662542 366.147592,182.157275 C366.599305,182.652008 366.825161,183.329577 366.825161,184.189982 C366.825161,184.763586 366.68176,185.358699 366.394959,185.975323 C366.108157,186.591947 365.735315,187.208571 365.276432,187.825194 C364.817549,188.441818 364.304891,189.044102 363.738457,189.632045 C363.172024,190.219989 362.616346,190.768497 362.071422,191.27757 C361.526499,191.786643 361.017426,192.249111 360.544203,192.664974 C360.07098,193.080836 359.698138,193.417828 359.425676,193.67595 L359.425676,193.67595 L359.425676,195.224679 L368.976174,195.224679 Z" id="score0.32" fill-rule="nonzero"></path>
                <path d="M444.643456,129.445379 C445.738125,129.445379 446.779826,128.918643 447.768559,127.865171 L447.768559,127.865171 L447.768559,129.224679 L449.145723,129.224679 L449.145723,120.025929 L447.768559,120.025929 L447.768559,126.673394 C446.803367,127.720981 445.899971,128.244774 445.058371,128.244774 C444.469839,128.244774 444.051981,128.05203 443.804798,127.666542 C443.557615,127.281053 443.434023,126.696936 443.434023,125.914188 L443.434023,125.914188 L443.434023,120.025929 L442.056859,120.025929 L442.056859,126.311447 C442.056859,128.400735 442.919058,129.445379 444.643456,129.445379 Z M455.978576,129.463035 C457.114442,129.463035 458.050208,129.208495 458.785872,128.699415 C459.521537,128.190335 459.889369,127.497339 459.889369,126.620426 C459.889369,126.173142 459.793733,125.780297 459.60246,125.441892 C459.411187,125.103486 459.124278,124.815105 458.741733,124.57675 C458.359187,124.338395 457.86482,124.13388 457.258633,123.963206 L457.258633,123.963206 L455.943264,123.583603 C455.342962,123.412929 454.94276,123.229013 454.74266,123.031854 C454.542559,122.834696 454.442509,122.603698 454.442509,122.338858 C454.442509,121.921001 454.660265,121.587009 455.095779,121.336883 C455.531292,121.086757 456.122767,120.961694 456.870202,120.961694 C457.552899,120.961694 458.279735,121.088229 459.050712,121.341297 L459.050712,121.341297 L459.359691,120.184832 C458.453352,119.931764 457.629408,119.805229 456.887858,119.805229 C455.740221,119.805229 454.819169,120.037699 454.124701,120.502639 C453.430234,120.96758 453.083,121.597308 453.083,122.391826 C453.083,122.756716 453.158038,123.086294 453.308114,123.380559 C453.458189,123.674825 453.677417,123.927894 453.965798,124.139765 C454.254178,124.351637 454.5661,124.512012 454.901563,124.62089 C455.237026,124.729768 455.76082,124.893086 456.472943,125.110843 C457.35574,125.381567 457.916317,125.641993 458.154672,125.892118 C458.393028,126.142244 458.512205,126.426211 458.512205,126.744018 C458.512205,127.214843 458.272379,127.592975 457.792725,127.878413 C457.313072,128.163851 456.6907,128.30657 455.925608,128.30657 C455.042811,128.30657 454.215924,128.124125 453.444947,127.759235 L453.444947,127.759235 L453.180108,128.951012 C453.915773,129.29236 454.848595,129.463035 455.978576,129.463035 Z M467.931655,129.463035 C469.014553,129.463035 469.962089,129.28059 470.774263,128.9157 L470.774263,128.9157 L470.535908,127.812203 C469.647225,128.112354 468.785026,128.26243 467.949311,128.26243 C467.072399,128.26243 466.33232,127.924024 465.729075,127.247213 C465.12583,126.570401 464.824208,125.711145 464.824208,124.669444 L464.824208,124.669444 L471.13621,124.669444 L471.13621,124.236873 C471.13621,122.895021 470.780148,121.82095 470.068025,121.014662 C469.355902,120.208374 468.470161,119.805229 467.410804,119.805229 C466.22197,119.805229 465.252364,120.239272 464.501987,121.107356 C463.751609,121.97544 463.37642,123.139261 463.37642,124.59882 C463.37642,126.087805 463.794277,127.270754 464.629992,128.147666 C465.465707,129.024578 466.566261,129.463035 467.931655,129.463035 Z M469.635454,123.548291 L464.912487,123.548291 C464.965455,122.789085 465.22588,122.17407 465.693763,121.703244 C466.161646,121.232419 466.751649,120.997006 467.463772,120.997006 C468.016992,120.997006 468.517244,121.242718 468.964528,121.734142 C469.411812,122.225566 469.635454,122.830282 469.635454,123.548291 L469.635454,123.548291 Z M476.971502,129.224679 L476.971502,123.274624 C476.971502,123.221656 477.134819,122.978887 477.461454,122.546316 C477.78809,122.113745 478.145623,121.781225 478.534053,121.548755 C478.922484,121.316285 479.319743,121.20005 479.72583,121.20005 C480.167229,121.20005 480.691022,121.332469 481.29721,121.597308 L481.29721,121.597308 L481.853372,120.273112 C481.200102,119.96119 480.526233,119.805229 479.831766,119.805229 C478.660588,119.805229 477.707166,120.499697 476.971502,121.888632 L476.971502,121.888632 L476.971502,120.025929 L475.603166,120.025929 L475.603166,129.224679 L476.971502,129.224679 Z M487.988815,129.463035 C489.148223,129.463035 490.154612,129.090788 491.007983,128.346296 C491.861354,127.601803 492.288039,126.682222 492.288039,125.587553 C492.288039,124.887201 492.058512,124.256 491.599457,123.693953 C491.140402,123.131905 490.531272,122.744945 489.772066,122.533074 L489.772066,122.533074 L489.772066,122.480106 C490.390024,122.338858 490.918232,121.993096 491.356688,121.442819 C491.795144,120.892542 492.014372,120.299596 492.014372,119.663982 C492.014372,118.745872 491.653896,117.994023 490.932945,117.408434 C490.211994,116.822845 489.295355,116.530051 488.183031,116.530051 C487.370857,116.530051 486.564568,116.712495 485.764165,117.077385 L485.764165,117.077385 L485.958381,118.32213 C486.752899,117.974896 487.470907,117.801279 488.112407,117.801279 C488.853957,117.801279 489.436603,117.967539 489.860346,118.30006 C490.284089,118.63258 490.49596,119.093106 490.49596,119.681638 C490.49596,120.405532 490.201694,120.980821 489.613163,121.407507 C489.024631,121.834192 488.277196,122.047535 487.370857,122.047535 L487.370857,122.047535 L487.264921,122.047535 L487.264921,123.239312 L487.644524,123.239312 C488.586175,123.239312 489.342438,123.465897 489.913314,123.919066 C490.484189,124.372235 490.769627,124.960767 490.769627,125.684661 C490.769627,126.420326 490.503317,127.022099 489.970696,127.489982 C489.438074,127.957865 488.795104,128.191806 488.041783,128.191806 C487.24138,128.191806 486.432149,128.000533 485.61409,127.617988 L485.61409,127.617988 L485.331594,128.809764 C486.114342,129.245278 487.000082,129.463035 487.988815,129.463035 Z M497.620136,129.463035 L503.031685,116.530051 L501.707489,116.530051 L496.322424,129.463035 L497.620136,129.463035 Z M510.226485,129.463035 C511.362351,129.463035 512.298117,129.208495 513.033781,128.699415 C513.769446,128.190335 514.137278,127.497339 514.137278,126.620426 C514.137278,126.173142 514.041642,125.780297 513.850369,125.441892 C513.659096,125.103486 513.372187,124.815105 512.989641,124.57675 C512.607096,124.338395 512.112729,124.13388 511.506542,123.963206 L511.506542,123.963206 L510.191173,123.583603 C509.590871,123.412929 509.190669,123.229013 508.990569,123.031854 C508.790468,122.834696 508.690417,122.603698 508.690417,122.338858 C508.690417,121.921001 508.908174,121.587009 509.343688,121.336883 C509.779201,121.086757 510.370675,120.961694 511.118111,120.961694 C511.800807,120.961694 512.527644,121.088229 513.298621,121.341297 L513.298621,121.341297 L513.6076,120.184832 C512.701261,119.931764 511.877317,119.805229 511.135767,119.805229 C509.98813,119.805229 509.067078,120.037699 508.37261,120.502639 C507.678143,120.96758 507.330909,121.597308 507.330909,122.391826 C507.330909,122.756716 507.405947,123.086294 507.556023,123.380559 C507.706098,123.674825 507.925326,123.927894 508.213707,124.139765 C508.502087,124.351637 508.814009,124.512012 509.149472,124.62089 C509.484935,124.729768 510.008728,124.893086 510.720852,125.110843 C511.603649,125.381567 512.164226,125.641993 512.402581,125.892118 C512.640936,126.142244 512.760114,126.426211 512.760114,126.744018 C512.760114,127.214843 512.520287,127.592975 512.040634,127.878413 C511.560981,128.163851 510.938608,128.30657 510.173517,128.30657 C509.29072,128.30657 508.463833,128.124125 507.692856,127.759235 L507.692856,127.759235 L507.428017,128.951012 C508.163682,129.29236 509.096504,129.463035 510.226485,129.463035 Z M520.590528,129.445379 C521.685197,129.445379 522.726898,128.918643 523.715632,127.865171 L523.715632,127.865171 L523.715632,129.224679 L525.092796,129.224679 L525.092796,120.025929 L523.715632,120.025929 L523.715632,126.673394 C522.75044,127.720981 521.847043,128.244774 521.005443,128.244774 C520.416911,128.244774 519.999054,128.05203 519.751871,127.666542 C519.504687,127.281053 519.381096,126.696936 519.381096,125.914188 L519.381096,125.914188 L519.381096,120.025929 L518.003931,120.025929 L518.003931,126.311447 C518.003931,128.400735 518.86613,129.445379 520.590528,129.445379 Z M530.248333,132.861805 L530.248333,127.900483 C530.536714,128.371308 530.929559,128.74944 531.426868,129.034878 C531.924177,129.320316 532.45827,129.463035 533.029146,129.463035 C534.100273,129.463035 534.952173,128.993681 535.584845,128.054972 C536.217516,127.116264 536.533852,125.940672 536.533852,124.528196 C536.533852,123.127491 536.232229,121.990153 535.628984,121.116184 C535.025739,120.242214 534.194438,119.805229 533.135081,119.805229 C532.55832,119.805229 532.009514,119.934706 531.488664,120.19366 C530.967813,120.452614 530.55437,120.793963 530.248333,121.217706 L530.248333,121.217706 L530.248333,120.025929 L528.871169,120.025929 L528.871169,132.861805 L530.248333,132.861805 Z M532.667199,128.227118 C532.196373,128.227118 531.740261,128.053501 531.298862,127.706267 C530.857464,127.359034 530.507287,126.926463 530.248333,126.408555 L530.248333,126.408555 L530.248333,122.586042 C530.925145,121.526685 531.749089,120.997006 532.720166,120.997006 C533.467602,120.997006 534.050248,121.332469 534.468106,122.003395 C534.885963,122.674321 535.094892,123.539463 535.094892,124.59882 C535.094892,125.628751 534.875664,126.490949 534.437208,127.185417 C533.998752,127.879884 533.408749,128.227118 532.667199,128.227118 Z M543.878727,129.463035 C544.961626,129.463035 545.909162,129.28059 546.721335,128.9157 L546.721335,128.9157 L546.48298,127.812203 C545.594297,128.112354 544.732098,128.26243 543.896383,128.26243 C543.019471,128.26243 542.279393,127.924024 541.676148,127.247213 C541.072903,126.570401 540.77128,125.711145 540.77128,124.669444 L540.77128,124.669444 L547.083282,124.669444 L547.083282,124.236873 C547.083282,122.895021 546.727221,121.82095 546.015097,121.014662 C545.302974,120.208374 544.417234,119.805229 543.357877,119.805229 C542.169043,119.805229 541.199437,120.239272 540.449059,121.107356 C539.698681,121.97544 539.323492,123.139261 539.323492,124.59882 C539.323492,126.087805 539.74135,127.270754 540.577065,128.147666 C541.41278,129.024578 542.513334,129.463035 543.878727,129.463035 Z M545.582527,123.548291 L540.85956,123.548291 C540.912528,122.789085 541.172953,122.17407 541.640836,121.703244 C542.108718,121.232419 542.698721,120.997006 543.410845,120.997006 C543.964064,120.997006 544.464316,121.242718 544.911601,121.734142 C545.358885,122.225566 545.582527,122.830282 545.582527,123.548291 L545.582527,123.548291 Z M552.918574,129.224679 L552.918574,123.274624 C552.918574,123.221656 553.081892,122.978887 553.408527,122.546316 C553.735162,122.113745 554.092695,121.781225 554.481126,121.548755 C554.869557,121.316285 555.266816,121.20005 555.672903,121.20005 C556.114301,121.20005 556.638095,121.332469 557.244282,121.597308 L557.244282,121.597308 L557.800445,120.273112 C557.147174,119.96119 556.473306,119.805229 555.778838,119.805229 C554.60766,119.805229 553.654239,120.499697 552.918574,121.888632 L552.918574,121.888632 L552.918574,120.025929 L551.550238,120.025929 L551.550238,129.224679 L552.918574,129.224679 Z M567.475906,124.925455 L567.475906,123.583603 L562.232088,123.583603 L562.232088,124.925455 L567.475906,124.925455 Z M574.856093,129.463035 C576.203831,129.463035 577.269073,128.889216 578.05182,127.741579 C578.05182,128.359538 578.107731,128.853904 578.219552,129.224679 L578.219552,129.224679 L579.587888,129.224679 C579.43487,128.600836 579.358361,127.888712 579.358361,127.088309 L579.358361,127.088309 L579.358361,123.133376 C579.358361,120.914612 578.310774,119.805229 576.215601,119.805229 C575.138588,119.805229 573.973296,120.125979 572.719723,120.767479 L572.719723,120.767479 L573.08167,121.756212 C573.464216,121.550226 573.921799,121.372195 574.45442,121.222119 C574.987041,121.072044 575.426969,120.997006 575.774203,120.997006 C577.245532,120.997006 577.981196,121.785639 577.981196,123.362904 L577.981196,123.362904 L577.981196,123.804302 L576.436301,123.927894 C575.741833,123.980862 575.141531,124.076498 574.635394,124.214803 C574.129256,124.353108 573.699628,124.541438 573.346509,124.779794 C572.99339,125.018149 572.725608,125.310943 572.543164,125.658177 C572.360719,126.005411 572.269496,126.405612 572.269496,126.858782 C572.269496,127.623873 572.529922,128.249188 573.050772,128.734727 C573.571623,129.220265 574.173396,129.463035 574.856093,129.463035 Z M575.253352,128.138838 C574.806068,128.138838 574.438236,128.012304 574.149855,127.759235 C573.861475,127.506167 573.717284,127.173646 573.717284,126.761674 C573.717284,126.308505 573.886487,125.9495 574.224893,125.684661 C574.563299,125.419822 574.9635,125.238848 575.425498,125.141741 C575.887495,125.044633 576.739395,124.940168 577.981196,124.828347 L577.981196,124.828347 L577.981196,126.496835 C577.616307,127.008857 577.192564,127.41053 576.709968,127.701853 C576.227372,127.993177 575.741833,128.138838 575.253352,128.138838 Z M587.241743,118.445721 C587.506582,118.445721 587.728753,118.354499 587.908255,118.172054 C588.087757,117.989609 588.177508,117.763024 588.177508,117.4923 C588.177508,117.233346 588.086286,117.011175 587.903841,116.825788 C587.721396,116.6404 587.500697,116.547707 587.241743,116.547707 C587.000445,116.547707 586.787102,116.641872 586.601714,116.830202 C586.416327,117.018532 586.323633,117.239231 586.323633,117.4923 C586.323633,117.745369 586.416327,117.967539 586.601714,118.158812 C586.787102,118.350085 587.000445,118.445721 587.241743,118.445721 Z M587.912669,129.224679 L587.912669,120.025929 L583.825316,120.025929 L583.825316,121.217706 L586.535505,121.217706 L586.535505,129.224679 L587.912669,129.224679 Z" id="user3/super-ai" fill-rule="nonzero"></path>
                <path d="M458.0032,195.482801 C459.566269,195.482801 460.738572,195.160149 461.520106,194.514845 C462.301641,193.869541 462.692408,193.052156 462.692408,192.06269 C462.692408,191.403046 462.513157,190.879633 462.154655,190.49245 C461.796153,190.105268 461.35161,189.796956 460.821027,189.567515 C460.290444,189.338073 459.713255,189.162407 459.089461,189.040517 C458.465668,188.918626 457.888479,188.789565 457.357896,188.653334 C456.827313,188.517103 456.38277,188.348607 456.024268,188.147846 C455.665766,187.947085 455.486515,187.660283 455.486515,187.287441 C455.486515,186.986299 455.5618,186.731763 455.712371,186.523831 C455.862942,186.3159 456.063703,186.147404 456.314655,186.018343 C456.565606,185.889283 456.845238,185.792487 457.15355,185.727957 C457.461862,185.663426 457.773759,185.631161 458.08924,185.631161 C458.920965,185.631161 459.612875,185.749467 460.164968,185.986078 C460.717061,186.22269 461.229719,186.470056 461.702942,186.728178 L461.702942,186.728178 L462.391267,185.373039 C461.961064,185.100578 461.383875,184.838871 460.659701,184.58792 C459.935527,184.336968 459.071536,184.211492 458.06773,184.211492 C457.508467,184.211492 456.970714,184.272438 456.45447,184.394328 C455.938227,184.516219 455.486515,184.70264 455.099332,184.953592 C454.71215,185.204543 454.400253,185.52361 454.163642,185.910793 C453.92703,186.297975 453.808724,186.764028 453.808724,187.308951 C453.808724,187.968595 453.987976,188.481253 454.346478,188.846925 C454.70498,189.212598 455.149523,189.502984 455.680106,189.718086 C456.210689,189.933187 456.787878,190.105268 457.411671,190.234329 C458.035465,190.36339 458.612654,190.503206 459.143237,190.653776 C459.67382,190.804347 460.118363,191.005109 460.476865,191.25606 C460.835367,191.507012 461.014618,191.861929 461.014618,192.320812 C461.014618,192.636293 460.939333,192.90517 460.788762,193.127441 C460.638191,193.349713 460.433845,193.528964 460.175723,193.665195 C459.917602,193.801426 459.620045,193.901806 459.283053,193.966337 C458.946061,194.030867 458.583973,194.063132 458.196791,194.063132 C457.795269,194.063132 457.397331,194.020112 457.002979,193.934071 C456.608626,193.848031 456.239369,193.73331 455.895207,193.589909 C455.551045,193.446508 455.235563,193.285182 454.948761,193.105931 C454.66196,192.92668 454.432518,192.751014 454.260437,192.578933 L454.260437,192.578933 L453.400032,193.977092 C453.615133,194.163513 453.887595,194.346349 454.217417,194.5256 C454.547239,194.704851 454.912911,194.866177 455.314434,195.009578 C455.715956,195.152979 456.146159,195.267699 456.605041,195.35374 C457.063924,195.439781 457.529977,195.482801 458.0032,195.482801 Z M471.468542,195.482801 C472.027805,195.482801 472.547633,195.43261 473.028026,195.33223 C473.508419,195.231849 473.945792,195.099203 474.340144,194.934292 C474.734496,194.769381 475.082244,194.593715 475.383385,194.407294 C475.684527,194.220873 475.935479,194.041622 476.13624,193.869541 L476.13624,193.869541 L475.383385,192.621953 C474.953183,192.994796 474.419015,193.295937 473.780881,193.525379 C473.142747,193.75482 472.486688,193.869541 471.812704,193.869541 C471.18174,193.869541 470.604551,193.77633 470.081138,193.589909 C469.557725,193.403488 469.109597,193.138197 468.736755,192.794034 C468.363913,192.449872 468.077111,192.030425 467.87635,191.535692 C467.675589,191.040959 467.575208,190.47811 467.575208,189.847147 C467.575208,188.413138 467.91937,187.366311 468.607694,186.706667 C469.296018,186.047023 470.342845,185.717201 471.748173,185.717201 C472.121016,185.717201 472.497443,185.756637 472.877455,185.835507 C473.257468,185.914378 473.612385,186.011173 473.942207,186.125894 L473.942207,186.125894 L473.942207,188.169356 L475.490936,188.169356 L475.490936,185.179448 L475.512446,185.114918 C475.053563,184.885476 474.490715,184.677545 473.823901,184.491124 C473.157087,184.304703 472.293097,184.211492 471.23193,184.211492 C470.400205,184.211492 469.647351,184.336968 468.973366,184.58792 C468.299382,184.838871 467.725779,185.200958 467.252556,185.674181 C466.779333,186.147404 466.417246,186.735348 466.166294,187.438012 C465.915343,188.140676 465.789867,188.943721 465.789867,189.847147 C465.789867,190.693212 465.911758,191.463991 466.155539,192.159486 C466.399321,192.85498 466.757823,193.450093 467.231046,193.944826 C467.704269,194.439559 468.295797,194.819572 469.005632,195.084863 C469.715466,195.350155 470.536436,195.482801 471.468542,195.482801 Z M483.858377,195.482801 C484.690102,195.482801 485.432201,195.350155 486.084675,195.084863 C486.737149,194.819572 487.285658,194.443144 487.7302,193.955581 C488.174743,193.468019 488.511735,192.87649 488.741176,192.180996 C488.970618,191.485502 489.085339,190.707552 489.085339,189.847147 C489.085339,189.058442 488.981373,188.319927 488.773442,187.631603 C488.56551,186.943279 488.246443,186.348165 487.816241,185.846262 C487.386038,185.344359 486.8447,184.946422 486.192226,184.65245 C485.539752,184.358478 484.761802,184.211492 483.858377,184.211492 C482.180587,184.211492 480.889979,184.71698 479.986553,185.727957 C479.083128,186.738933 478.631415,188.111996 478.631415,189.847147 C478.631415,190.635851 478.735381,191.374366 478.943312,192.06269 C479.151243,192.751014 479.47031,193.346128 479.900513,193.848031 C480.330715,194.349934 480.875639,194.747871 481.535283,195.041843 C482.194927,195.335815 482.969291,195.482801 483.858377,195.482801 Z M483.858377,194.041622 C483.227413,194.041622 482.693245,193.919731 482.255872,193.67595 C481.818499,193.432168 481.463582,193.109516 481.191121,192.707994 C480.918659,192.306471 480.721483,191.854759 480.599592,191.352856 C480.477701,190.850953 480.416756,190.34905 480.416756,189.847147 C480.416756,188.456158 480.703558,187.409332 481.277161,186.706667 C481.850765,186.004003 482.71117,185.652671 483.858377,185.652671 C484.489341,185.652671 485.023509,185.774562 485.460882,186.018343 C485.898254,186.262125 486.256756,186.584777 486.536388,186.986299 C486.81602,187.387822 487.016781,187.835949 487.138672,188.330682 C487.260563,188.825415 487.321508,189.330903 487.321508,189.847147 C487.321508,191.223795 487.031121,192.267036 486.450348,192.976871 C485.869574,193.686705 485.005584,194.041622 483.858377,194.041622 Z M500.421177,195.224679 L500.421177,193.7835 L496.291232,193.7835 L496.291232,187.438012 C496.377273,187.308951 496.513504,187.15121 496.699925,186.964789 C496.886346,186.778368 497.112202,186.591947 497.377494,186.405526 C497.642786,186.219105 497.954682,186.061364 498.313185,185.932303 C498.671687,185.803242 499.073209,185.738712 499.517752,185.738712 C499.990975,185.738712 500.317212,185.953813 500.496463,186.384016 C500.675714,186.814218 500.765339,187.488202 500.765339,188.405968 L500.765339,188.405968 L502.271049,188.384458 C502.271049,187.739154 502.242368,187.161965 502.185008,186.652892 C502.127648,186.143819 502.016512,185.710031 501.851601,185.351529 C501.68669,184.993027 501.457249,184.720565 501.163277,184.534144 C500.869305,184.347723 500.478538,184.254513 499.990975,184.254513 C499.15925,184.254513 498.442245,184.412254 497.839962,184.727735 C497.237678,185.043217 496.692755,185.42323 496.205192,185.867772 L496.205192,185.867772 L496.097641,185.867772 L495.753479,184.469614 L491.731085,184.469614 L491.731085,185.910793 L494.634952,185.910793 L494.634952,193.7835 L491.731085,193.7835 L491.731085,195.224679 L500.421177,195.224679 Z M509.864125,195.482801 C510.323008,195.482801 510.778305,195.443366 511.230018,195.364495 C511.681731,195.285625 512.115518,195.174489 512.531381,195.031088 C512.947243,194.887687 513.330841,194.715606 513.682173,194.514845 C514.033505,194.314084 514.338232,194.098982 514.596353,193.869541 L514.596353,193.869541 L513.929539,192.643464 C513.786139,192.772524 513.581792,192.915925 513.316501,193.073666 C513.051209,193.231407 512.746482,193.374808 512.40232,193.503869 C512.058158,193.63293 511.696071,193.744065 511.316059,193.837276 C510.936046,193.930486 510.552449,193.977092 510.165267,193.977092 C509.003719,193.977092 508.075199,193.658025 507.379705,193.019891 C506.68421,192.381757 506.336463,191.417386 506.336463,190.126778 L506.336463,190.126778 L514.660884,190.126778 C514.732584,188.907871 514.646544,187.91482 514.402762,187.147625 C514.158981,186.380431 513.811234,185.778147 513.359521,185.340774 C512.907808,184.903402 512.38798,184.605845 511.800036,184.448104 C511.212093,184.290363 510.616979,184.211492 510.014696,184.211492 C509.182971,184.211492 508.430116,184.336968 507.756132,184.58792 C507.082148,184.838871 506.508544,185.200958 506.035321,185.674181 C505.562099,186.147404 505.200011,186.735348 504.94906,187.438012 C504.698108,188.140676 504.572633,188.943721 504.572633,189.847147 C504.572633,190.707552 504.687353,191.481916 504.916795,192.170241 C505.146236,192.858565 505.483228,193.450093 505.927771,193.944826 C506.372314,194.439559 506.924407,194.819572 507.584051,195.084863 C508.243695,195.350155 509.003719,195.482801 509.864125,195.482801 Z M513.090644,188.621069 L506.400994,188.621069 C506.458354,188.061806 506.591,187.592168 506.798931,187.212156 C507.006862,186.832143 507.272154,186.523831 507.594806,186.28722 C507.917458,186.050609 508.2903,185.882112 508.713333,185.781732 C509.136365,185.681351 509.584493,185.631161 510.057716,185.631161 C510.932461,185.631161 511.63871,185.892868 512.176464,186.416281 C512.714217,186.939694 513.018944,187.674623 513.090644,188.621069 L513.090644,188.621069 Z M535.46118,195.482801 C536.364606,195.482801 537.14614,195.307135 537.805784,194.955803 C538.465428,194.60447 539.010352,194.095397 539.440554,193.428583 C539.870757,192.761769 540.193409,191.944384 540.40851,190.976428 C540.623611,190.008473 540.731162,188.915041 540.731162,187.696134 C540.731162,186.448546 540.637952,185.340774 540.45153,184.372818 C540.265109,183.404862 539.963967,182.591063 539.548105,181.931419 C539.132242,181.271775 538.590904,180.769871 537.92409,180.425709 C537.257276,180.081547 536.443476,179.909466 535.48269,179.909466 C534.579265,179.909466 533.79773,180.085132 533.138086,180.436464 C532.478442,180.787797 531.933519,181.29687 531.503316,181.963684 C531.073113,182.630498 530.750462,183.447883 530.53536,184.415839 C530.320259,185.383794 530.212708,186.477226 530.212708,187.696134 C530.212708,188.84334 530.305919,189.893752 530.49234,190.847368 C530.678761,191.800983 530.983488,192.621953 531.40652,193.310278 C531.829553,193.998602 532.374476,194.53277 533.04129,194.912782 C533.708104,195.292795 534.514734,195.482801 535.46118,195.482801 Z M532.1056,189.696576 C532.07692,189.381094 532.051824,189.058442 532.030314,188.72862 C532.008804,188.398798 531.998049,188.054636 531.998049,187.696134 C531.998049,185.573801 532.259756,183.985636 532.783169,182.93164 C533.306582,181.877643 534.206422,181.350645 535.48269,181.350645 C536.300075,181.350645 536.948964,181.580086 537.429357,182.038969 C537.90975,182.497852 538.271837,183.114476 538.515619,183.88884 L538.515619,183.88884 L532.1056,189.696576 Z M535.46118,194.041622 C534.672475,194.041622 534.034341,193.797841 533.546778,193.310278 C533.059216,192.822715 532.693543,192.170241 532.449762,191.352856 L532.449762,191.352856 L538.838271,185.52361 C538.924311,186.211934 538.967331,186.936109 538.967331,187.696134 C538.967331,189.832806 538.698455,191.424556 538.160701,192.471382 C537.622948,193.518209 536.723108,194.041622 535.46118,194.041622 Z M548.367258,195.482801 C548.826141,195.482801 549.184643,195.34657 549.442765,195.074108 C549.700887,194.801647 549.829947,194.457485 549.829947,194.041622 C549.829947,193.582739 549.700887,193.227822 549.442765,192.976871 C549.184643,192.725919 548.826141,192.600443 548.367258,192.600443 C547.937056,192.600443 547.592894,192.725919 547.334772,192.976871 C547.076651,193.227822 546.94759,193.582739 546.94759,194.041622 C546.94759,194.457485 547.076651,194.801647 547.334772,195.074108 C547.592894,195.34657 547.937056,195.482801 548.367258,195.482801 Z M564.413816,195.224679 L564.413816,190.535471 L567.317683,190.535471 L567.317683,189.115802 L564.413816,189.115802 L564.413816,180.167588 L562.994147,180.167588 L555.788253,189.287883 L555.788253,190.535471 L562.736026,190.535471 L562.736026,195.224679 L564.413816,195.224679 Z M562.736026,189.115802 L557.767186,189.115802 L562.736026,182.856354 L562.736026,189.115802 Z M573.017868,195.482801 C573.806573,195.482801 574.548672,195.378835 575.244167,195.170904 C575.939661,194.962973 576.54553,194.654661 577.061773,194.245968 C577.578016,193.837276 577.986708,193.331788 578.28785,192.729504 C578.588992,192.12722 578.739563,191.438896 578.739563,190.664532 C578.739563,190.047908 578.628427,189.495814 578.406156,189.008251 C578.183884,188.520689 577.871988,188.104826 577.470465,187.760664 C577.068943,187.416502 576.59572,187.15121 576.050796,186.964789 C575.505873,186.778368 574.90359,186.685157 574.243946,186.685157 L574.243946,186.685157 L573.899783,186.685157 L578.137279,181.716317 L578.137279,180.167588 L569.640778,180.167588 L569.640778,181.716317 L576.072307,181.716317 L571.834811,187.07234 L571.834811,188.104826 L573.211459,188.104826 C574.387346,188.104826 575.323037,188.316342 576.018531,188.739375 C576.714026,189.162407 577.061773,189.868657 577.061773,190.858123 C577.061773,191.331346 576.961392,191.761548 576.760631,192.148731 C576.55987,192.535913 576.280238,192.865735 575.921736,193.138197 C575.563234,193.410658 575.143786,193.622174 574.663393,193.772745 C574.183,193.923316 573.656002,193.998602 573.082398,193.998602 C572.451435,193.998602 571.885001,193.944826 571.383098,193.837276 C570.881195,193.729725 570.443822,193.589909 570.07098,193.417828 L570.07098,193.417828 L569.640778,194.923537 C570.08532,195.081278 570.576468,195.213924 571.114222,195.321475 C571.651975,195.429025 572.286524,195.482801 573.017868,195.482801 Z" id="score0.43" fill-rule="nonzero"></path>
            </g>
            <g id="Group-6" transform="translate(51.000000, 141.000000)"></g>
            <g id="Group-6-Copy" transform="translate(271.500000, 141.000000)"></g>
            <g id="Group-6-Copy-2" transform="translate(476.500000, 141.000000)"></g>
        </g>
    </g>
</svg>